<svg width="90" height="90" viewBox="0 0 90 90" fill="none" xmlns="http://www.w3.org/2000/svg">
<path d="M4 45C1.79086 45 -0.0184479 46.7944 0.177658 48.9948C0.582306 53.535 1.67516 57.9953 3.42542 62.2208C5.68688 67.6804 9.00156 72.6412 13.1802 76.8198C17.3588 80.9984 22.3196 84.3131 27.7792 86.5746C32.0047 88.3248 36.465 89.4177 41.0052 89.8223C43.2056 90.0184 45 88.2091 45 86V49C45 46.7909 43.2091 45 41 45H4Z" fill="#D6FFE9"/>
<path d="M47.8 72.8399H47.52V69.5448L48.2098 69.7838C48.7253 69.9659 48.8803 70.0671 48.9666 70.1732C49.0377 70.2607 49.18 70.5058 49.18 71.2799C49.18 72.1971 48.4807 72.8399 47.8 72.8399Z" fill="#00D563" stroke="#00D563" stroke-width="2"/>
<path d="M26.0001 65.8565C25.9621 55.3707 34.4539 46.8386 44.9429 46.8001C55.4316 46.7816 63.9621 55.2563 64.0001 65.7437C64.0381 76.2298 55.5459 84.7621 45.0565 84.8001C34.5704 84.8381 26.0381 76.3458 26.0001 65.8565ZM54.1801 71.2801C54.1801 69.277 53.5852 67.8449 52.6805 66.8334C51.7979 65.8467 50.7004 65.3509 49.8522 65.0568L47.5001 64.2157V59.1836C48.3892 59.333 49.1601 60.1812 49.1601 61.3201C49.1601 62.6924 50.2878 63.8201 51.6601 63.8201C53.0324 63.8201 54.1601 62.6924 54.1601 61.3201C54.1601 57.4976 51.2339 54.3178 47.5001 54.1658V54.0001C47.5001 52.6278 46.3724 51.5001 45.0001 51.5001C43.6278 51.5001 42.5001 52.6278 42.5001 54.0001V54.1601H42.2001C38.6595 54.1601 35.8201 57.1166 35.8201 60.7201C35.8201 62.7231 36.4151 64.1553 37.3198 65.1667C38.2023 66.1535 39.2999 66.6493 40.1481 66.9434L42.5001 67.7845V72.8166C41.611 72.6671 40.8401 71.819 40.8401 70.6801C40.8401 69.3078 39.7124 68.1801 38.3401 68.1801C36.9678 68.1801 35.8401 69.3078 35.8401 70.6801C35.8401 74.5026 38.7664 77.6823 42.5001 77.8344V78.0001C42.5001 79.3724 43.6278 80.5001 45.0001 80.5001C46.3724 80.5001 47.5001 79.3724 47.5001 78.0001V77.8401H47.8001C51.3408 77.8401 54.1801 74.8836 54.1801 71.2801Z" fill="#00D563" stroke="#00D563" stroke-width="2"/>
<path d="M39.8398 60.7399C39.8398 62.4799 40.4598 62.8199 41.4798 63.1799L43.4998 63.8799V58.1599H42.1998C40.8998 58.1599 39.8398 59.3199 39.8398 60.7399Z" fill="#00D563"/>
</svg>
