<svg width="90" height="90" viewBox="0 0 90 90" fill="none" xmlns="http://www.w3.org/2000/svg">
<path d="M4 45C1.79086 45 -0.0184479 46.7944 0.177658 48.9948C0.582306 53.535 1.67516 57.9953 3.42542 62.2208C5.68688 67.6804 9.00156 72.6412 13.1802 76.8198C17.3588 80.9984 22.3196 84.3131 27.7792 86.5746C32.0047 88.3248 36.465 89.4177 41.0052 89.8223C43.2056 90.0184 45 88.2091 45 86V49C45 46.7909 43.2091 45 41 45H4Z" fill="#D6FFE9"/>
<path d="M33.7584 77.2261C34.0447 78.8071 34.3679 80.3869 34.7579 81.953C32.4677 80.484 30.5131 78.5232 29.0363 76.2271C30.6022 76.6199 32.1847 76.9479 33.7584 77.2261Z" fill="#00D563" stroke="#00D563" stroke-width="2"/>
<path d="M56.2669 77.226C57.8502 76.9471 59.4212 76.6185 60.9793 76.2251C59.497 78.5325 57.5178 80.5005 55.1997 81.9895C55.6185 80.4139 55.9822 78.8257 56.2669 77.226Z" fill="#00D563" stroke="#00D563" stroke-width="2"/>
<path d="M63.0401 57.42C60.5201 56.66 57.9801 56.04 55.4001 55.6C54.9801 53.02 54.3601 50.46 53.5801 47.96C57.7201 49.94 61.0601 53.28 63.0401 57.42Z" fill="#00D563"/>
<path d="M36.3 48.1801C35.58 50.6201 35.06 53.1001 34.64 55.6201C32.06 56.0201 29.5 56.6601 26.96 57.4201C28.9 53.4001 32.12 50.1001 36.1 48.1201C36.16 48.1201 36.24 48.1801 36.3 48.1801Z" fill="#00D563"/>
<path d="M51.9795 55.18C47.3395 54.66 42.6595 54.66 38.0195 55.18C38.5195 52.44 39.1595 49.7 40.0595 47.06C40.0995 46.9 40.0795 46.78 40.0995 46.62C41.6795 46.24 43.2995 46 44.9995 46C46.6795 46 48.3195 46.24 49.8795 46.62C49.8995 46.78 49.8995 46.9 49.9395 47.06C50.8395 49.72 51.4795 52.44 51.9795 55.18Z" fill="#00D563"/>
<path d="M34.18 72.98C31.42 72.48 28.7 71.84 26.06 70.94C25.9 70.9 25.78 70.92 25.62 70.9C25.24 69.32 25 67.7 25 66C25 64.32 25.24 62.68 25.62 61.12C25.78 61.1 25.9 61.1 26.06 61.06C28.72 60.18 31.42 59.52 34.18 59.02C33.68 63.66 33.68 68.34 34.18 72.98Z" fill="#00D563"/>
<path d="M65.0003 66C65.0003 67.7 64.7603 69.32 64.3803 70.9C64.2203 70.92 64.1003 70.9 63.9403 70.94C61.2803 71.82 58.5603 72.48 55.8203 72.98C56.3403 68.34 56.3403 63.66 55.8203 59.02C58.5603 59.52 61.3003 60.16 63.9403 61.06C64.1003 61.1 64.2203 61.12 64.3803 61.12C64.7603 62.7 65.0003 64.32 65.0003 66Z" fill="#00D563"/>
<path d="M51.9795 76.8201C51.4795 79.5801 50.8395 82.3001 49.9395 84.9401C49.8995 85.1001 49.8995 85.2201 49.8795 85.3801C48.3195 85.7601 46.6795 86.0001 44.9995 86.0001C43.2995 86.0001 41.6795 85.7601 40.0995 85.3801C40.0795 85.2201 40.0995 85.1001 40.0595 84.9401C39.1795 82.2801 38.5195 79.5801 38.0195 76.8201C40.3395 77.0801 42.6595 77.2601 44.9995 77.2601C47.3395 77.2601 49.6795 77.0801 51.9795 76.8201Z" fill="#00D563"/>
<path d="M52.5267 73.5267C47.5245 74.1578 42.4755 74.1578 37.4733 73.5267C36.8422 68.5245 36.8422 63.4755 37.4733 58.4733C42.4755 57.8422 47.5245 57.8422 52.5267 58.4733C53.1578 63.4755 53.1578 68.5245 52.5267 73.5267Z" fill="#00D563"/>
</svg>
