<svg width="172" height="36" viewBox="0 0 172 36" fill="none" xmlns="http://www.w3.org/2000/svg">
<circle cx="18" cy="18" r="18" fill="#FF7700"/>
<rect x="9" y="15.3003" width="3.6" height="12.6" rx="1.8" fill="white"/>
<rect x="16.2012" y="11.6997" width="3.6" height="16.2" rx="1.8" fill="white"/>
<rect x="23.4004" y="8.1001" width="3.6" height="19.8" rx="1.8" fill="white"/>
<path d="M47.6975 8.18677C49.1571 8.18677 50.2994 7.06617 50.2994 5.59338C50.2994 4.1206 49.1571 3 47.6975 3C46.238 3 45.0957 4.1206 45.0957 5.59338C45.0957 7.06617 46.238 8.18677 47.6975 8.18677ZM45.6351 26.9168H49.76V10.588H45.6351V26.9168Z" fill="#252E43"/>
<path d="M65.3045 10.588V12.5411C64.0036 11.1003 62.195 10.2038 60.0374 10.2038C55.5318 10.2038 52.1367 13.8858 52.1367 18.7524C52.1367 23.619 55.5318 27.301 60.0374 27.301C62.195 27.301 64.0036 26.4045 65.3045 24.9637V33H69.4294V10.588H65.3045ZM60.8306 23.2668C58.2923 23.2668 56.3885 21.3138 56.3885 18.7524C56.3885 16.191 58.2923 14.238 60.8306 14.238C63.4007 14.238 65.3045 16.191 65.3045 18.7524C65.3045 21.3138 63.4007 23.2668 60.8306 23.2668Z" fill="#252E43"/>
<path d="M87.0136 27.301C91.9634 27.301 95.7075 23.619 95.7075 18.7524C95.7075 13.8858 91.9634 10.2038 87.0136 10.2038C82.0637 10.2038 78.3196 13.8858 78.3196 18.7524C78.3196 23.619 82.0637 27.301 87.0136 27.301ZM87.0136 23.2668C84.4752 23.2668 82.5714 21.3138 82.5714 18.7524C82.5714 16.191 84.4752 14.238 87.0136 14.238C89.5837 14.238 91.4557 16.191 91.4557 18.7524C91.4557 21.3138 89.5837 23.2668 87.0136 23.2668Z" fill="#252E43"/>
<path d="M107.427 10.2038C105.269 10.2038 103.461 11.0683 102.16 12.5411V10.588H98.0349V33H102.16V24.9637C103.461 26.4365 105.269 27.301 107.427 27.301C111.933 27.301 115.296 23.619 115.296 18.7524C115.296 13.8858 111.933 10.2038 107.427 10.2038ZM106.602 23.2668C104.064 23.2668 102.16 21.3138 102.16 18.7524C102.16 16.191 104.064 14.238 106.602 14.238C109.172 14.238 111.044 16.191 111.044 18.7524C111.044 21.3138 109.172 23.2668 106.602 23.2668Z" fill="#252E43"/>
<path d="M126.947 14.3981V10.588H122.6V6.45784H118.475V10.588H115.905V14.3981H118.475V21.8581C118.475 25.1238 120.22 27.301 123.932 27.301C125.138 27.301 126.058 27.0768 126.947 26.5966V22.7225C126.344 23.0107 125.646 23.2668 124.821 23.2668C123.361 23.2668 122.6 22.5624 122.6 21.1857V14.3981H126.947Z" fill="#252E43"/>
<path d="M131.425 8.18677C132.885 8.18677 134.027 7.06617 134.027 5.59338C134.027 4.1206 132.885 3 131.425 3C129.966 3 128.824 4.1206 128.824 5.59338C128.824 7.06617 129.966 8.18677 131.425 8.18677ZM129.363 26.9168H133.488V10.588H129.363V26.9168Z" fill="#252E43"/>
<path d="M144.495 27.301C149.445 27.301 153.189 23.619 153.189 18.7524C153.189 13.8858 149.445 10.2038 144.495 10.2038C139.545 10.2038 135.801 13.8858 135.801 18.7524C135.801 23.619 139.545 27.301 144.495 27.301ZM144.495 23.2668C141.957 23.2668 140.053 21.3138 140.053 18.7524C140.053 16.191 141.957 14.238 144.495 14.238C147.065 14.238 148.937 16.191 148.937 18.7524C148.937 21.3138 147.065 23.2668 144.495 23.2668Z" fill="#252E43"/>
<path d="M164.781 10.2038C162.687 10.2038 160.91 10.9723 159.641 12.413V10.588H155.516V26.9168H159.641V17.952C159.641 15.7108 161.164 14.238 163.417 14.238C165.575 14.238 166.971 15.6788 166.971 17.8879V26.9168H171.096V16.5432C171.096 12.7012 168.589 10.2038 164.781 10.2038Z" fill="#252E43"/>
</svg>
