<svg width="90" height="90" viewBox="0 0 90 90" fill="none" xmlns="http://www.w3.org/2000/svg">
<path d="M4 45C1.79086 45 -0.0184479 46.7944 0.177658 48.9948C0.582306 53.535 1.67516 57.9953 3.42542 62.2208C5.68688 67.6804 9.00156 72.6412 13.1802 76.8198C17.3588 80.9984 22.3196 84.3131 27.7792 86.5746C32.0047 88.3248 36.465 89.4177 41.0052 89.8223C43.2056 90.0184 45 88.2091 45 86V49C45 46.7909 43.2091 45 41 45H4Z" fill="#D6FFE9"/>
<path d="M30.5 55.5C30.5 50.8123 34.3123 47 39 47C43.6871 47 47.499 50.8112 47.5 55.4981C47.4811 60.0972 43.8936 63.8104 39.322 63.98H39.3219H39.3219H39.3218H39.3218H39.3217H39.3216H39.3216H39.3215H39.3215H39.3214H39.3214H39.3213H39.3212H39.3212H39.3211H39.3211H39.321H39.3209H39.3209H39.3208H39.3208H39.3207H39.3206H39.3206H39.3205H39.3205H39.3204H39.3204H39.3203H39.3202H39.3202H39.3201H39.3201H39.32H39.3199H39.3199H39.3198H39.3198H39.3197H39.3196H39.3196H39.3195H39.3195H39.3194H39.3194H39.3193H39.3192H39.3192H39.3191H39.3191H39.319H39.3189H39.3189H39.3188H39.3188H39.3187H39.3186H39.3186H39.3185H39.3185H39.3184H39.3184H39.3183H39.3182H39.3182H39.3181H39.3181H39.318H39.3179H39.3179H39.3178H39.3178H39.3177H39.3176H39.3176H39.3175H39.3175H39.3174H39.3173H39.3173H39.3172H39.3172H39.3171H39.317H39.317H39.3169H39.3168H39.3168H39.3167H39.3167H39.3166H39.3165H39.3165H39.3164H39.3164H39.3163H39.3162H39.3162H39.3161H39.316H39.316H39.3159H39.3159H39.3158H39.3157H39.3157H39.3156H39.3155H39.3155H39.3154H39.3154H39.3153H39.3152H39.3152H39.3151H39.315H39.315H39.3149H39.3148H39.3148H39.3147H39.3146H39.3146H39.3145H39.3144H39.3144H39.3143H39.3142H39.3142H39.3141H39.314H39.314H39.3139H39.3138H39.3138H39.3137H39.3136H39.3136H39.3135H39.3134H39.3134H39.3133H39.3132H39.3132H39.3131H39.313H39.3129H39.3129H39.3128H39.3127H39.3127H39.3126H39.3125H39.3125H39.3124H39.3123H39.3122H39.3122H39.3121H39.312H39.3119H39.3119H39.3118H39.3117H39.3117H39.3116H39.3115H39.3114H39.3114H39.3113H39.3112H39.3111H39.3111H39.311H39.3109H39.3108H39.3107H39.3107H39.3106H39.3105H39.3104H39.3104H39.3103H39.3102H39.3101H39.31H39.31H39.3099H39.3098H39.3097H39.3096H39.3096H39.3095H39.3094H39.3093H39.3092H39.3092H39.3091H39.309H39.3089H39.3088H39.3087H39.3087H39.3086H39.3085H39.3084H39.3083H39.3082H39.3081H39.3081H39.308H39.3079H39.3078H39.3077H39.3076H39.3075H39.3075H39.3074H39.3073H39.3072H39.3071H39.307H39.3069H39.3068H39.3067H39.3066H39.3065H39.3065H39.3064H39.3063H39.3062H39.3061H39.306H39.3059H39.3058H39.3057H39.3056H39.3055H39.3054H39.3053H39.3052H39.3051H39.305H39.3049H39.3048H39.3047H39.3046H39.3045H39.3044H39.3043H39.3042H39.3041H39.304H39.3039H39.3038H39.3037H39.3036H39.3035H39.3034H39.3033H39.3032H39.3031H39.303H39.3029H39.3028H39.3027H39.3026H39.3025H39.3024H39.3023H39.3021H39.302H39.3019H39.3018H39.3017H39.3016H39.3015H39.3014H39.3013H39.3011H39.301H39.3009H39.3008H39.3007H39.3006H39.3005H39.3003H39.3002H39.3001H39.3H39.2998H39.2995H39.2993H39.2991H39.2988H39.2986H39.2984H39.2981H39.2979H39.2977H39.2974H39.2972H39.297H39.2968H39.2965H39.2963H39.2961H39.2959H39.2956H39.2954H39.2952H39.295H39.2947H39.2945H39.2943H39.2941H39.2938H39.2936H39.2934H39.2932H39.2929H39.2927H39.2925H39.2923H39.2921H39.2918H39.2916H39.2914H39.2912H39.291H39.2908H39.2905H39.2903H39.2901H39.2899H39.2897H39.2895H39.2892H39.289H39.2888H39.2886H39.2884H39.2882H39.288H39.2878H39.2875H39.2873H39.2871H39.2869H39.2867H39.2865H39.2863H39.2861H39.2859H39.2857H39.2854H39.2852H39.285H39.2848H39.2846H39.2844H39.2842H39.284H39.2838H39.2836H39.2834H39.2832H39.283H39.2828H39.2826H39.2824H39.2822H39.282H39.2818H39.2815H39.2813H39.2811H39.2809H39.2807H39.2805H39.2803H39.2801H39.2799H39.2797H39.2795H39.2793H39.2791H39.2789H39.2788H39.2786H39.2784H39.2782H39.278H39.2778H39.2776H39.2774H39.2772H39.277H39.2768H39.2766H39.2764H39.2762H39.276H39.2758H39.2756H39.2754H39.2752H39.275H39.2748H39.2747H39.2745H39.2743H39.2741H39.2739H39.2737H39.2735H39.2733H39.2731H39.2729H39.2727H39.2726H39.2724H39.2722H39.272H39.2718H39.2716H39.2714H39.2712H39.271H39.2709H39.2707H39.2705H39.2703H39.2701H39.2699H39.2697H39.2695H39.2694H39.2692H39.269H39.2688H39.2686H39.2684H39.2682H39.2681H39.2679H39.2677H39.2675C39.0866 63.9591 38.8984 63.9616 38.7251 63.9779C34.0508 63.7823 30.5 60.0715 30.5 55.5Z" fill="#00D563" stroke="#00D563" stroke-width="2"/>
<path d="M29.3974 82.3498L29.3946 82.348C27.0767 80.8027 25.9199 78.8035 25.9199 76.76C25.9199 74.7158 27.0774 72.6971 29.414 71.1325C32.0271 69.4036 35.5035 68.51 39.0249 68.51C42.5476 68.51 46.0134 69.4041 48.6052 71.1321C50.916 72.6725 52.0618 74.6712 52.0799 76.7241C52.0784 78.787 50.9206 80.7856 48.6017 82.3503C46 84.0969 42.5254 85 38.9999 85C35.474 85 31.9991 84.0967 29.3974 82.3498Z" fill="#00D563" stroke="#00D563" stroke-width="2"/>
<path d="M60.9797 56.68C61.2997 60.56 58.5397 63.96 54.7197 64.42C54.6997 64.42 54.6997 64.42 54.6797 64.42H54.6197C54.4997 64.42 54.3797 64.42 54.2797 64.46C52.3397 64.56 50.5597 63.94 49.2197 62.8C51.2797 60.96 52.4597 58.2 52.2197 55.2C52.0797 53.58 51.5197 52.1 50.6797 50.84C51.4397 50.46 52.3197 50.22 53.2197 50.14C57.1397 49.8 60.6397 52.72 60.9797 56.68Z" fill="#00D563"/>
<path d="M64.9805 75.1801C64.8205 77.1201 63.5805 78.8001 61.5005 79.9401C59.5005 81.0401 56.9805 81.5601 54.4805 81.5001C55.9205 80.2001 56.7605 78.5801 56.9205 76.8601C57.1205 74.3801 55.9405 72.0001 53.5805 70.1001C52.2405 69.0401 50.6805 68.2001 48.9805 67.5801C53.4005 66.3001 58.9605 67.1601 62.3805 69.9201C64.2205 71.4001 65.1605 73.2601 64.9805 75.1801Z" fill="#00D563"/>
</svg>
