<svg width="80" height="80" viewBox="0 0 80 80" fill="none" xmlns="http://www.w3.org/2000/svg">
<path opacity="0.4" d="M56.0002 6.66669H20.7002C12.9669 6.66669 6.7002 12.9334 6.7002 20.6334V41.2334V41.8667C6.7002 49.6 12.9669 55.8334 20.6669 55.8334H32.6669C34.5002 55.8334 36.0002 57.3334 36.0002 59.1667V61.9C36.0002 63.7334 34.5002 65.2334 32.6669 65.2334H25.1669C23.8669 65.2334 22.8002 66.3 22.8002 67.6C22.8002 68.9 23.8669 69.9667 25.1669 69.9667H51.6002C52.9002 69.9667 53.9669 68.9 53.9669 67.6C53.9669 66.3 52.9002 65.2334 51.6002 65.2334H44.1002C42.2669 65.2334 40.7669 63.7334 40.7669 61.9V59.1667C40.7669 57.3334 42.2669 55.8334 44.1002 55.8334H56.0002C63.7335 55.8334 69.9669 49.5667 69.9669 41.8667V41.2334V20.6334C69.9669 12.9334 63.7002 6.66669 56.0002 6.66669Z" fill="#00D563"/>
<path d="M65.4668 31.6667H47.8335C42.0668 31.6667 39.9668 33.7667 39.9668 39.6V65.3667C39.9668 71.2334 42.0335 73.3 47.8335 73.3H65.4668C71.2335 73.3 73.3335 71.2 73.3335 65.3667V39.6C73.3335 33.7334 71.2668 31.6667 65.4668 31.6667ZM56.6668 67.7334C54.6335 67.7334 53.0001 66.1 53.0001 64.0667C53.0001 62.0334 54.6335 60.4 56.6668 60.4C58.7001 60.4 60.3335 62.0334 60.3335 64.0667C60.3335 66.1 58.7001 67.7334 56.6668 67.7334Z" fill="#00D563"/>
<path opacity="0.4" d="M60.3333 64.0667C60.3333 66.1 58.7 67.7334 56.6667 67.7334C54.6333 67.7334 53 66.1 53 64.0667C53 62.0334 54.6333 60.4 56.6667 60.4C58.7 60.4 60.3333 62.0667 60.3333 64.0667Z" fill="#00D563"/>
</svg>
