<svg width="90" height="90" viewBox="0 0 90 90" fill="none" xmlns="http://www.w3.org/2000/svg">
<path d="M4 45C1.79086 45 -0.0184479 46.7944 0.177658 48.9948C0.582306 53.535 1.67516 57.9953 3.42542 62.2208C5.68688 67.6804 9.00156 72.6412 13.1802 76.8198C17.3588 80.9984 22.3196 84.3131 27.7792 86.5746C32.0047 88.3248 36.465 89.4177 41.0052 89.8223C43.2056 90.0184 45 88.2091 45 86V49C45 46.7909 43.2091 45 41 45H4Z" fill="#D6FFE9"/>
<path d="M58.0205 84.14L58.7205 81.2C58.8805 80.46 59.4605 79.9 60.2005 79.72L58.0205 84.14ZM58.0205 84.14C57.6405 85.74 55.6005 86.24 54.5405 84.98L58.0205 84.14ZM57.7455 80.9774C57.9957 79.8418 58.8829 79.0113 59.9641 78.7483L59.9704 78.7468L59.9705 78.7468L63.27 77.9669L57.7455 80.9774ZM57.7455 80.9774L57.0477 83.9084L57.0475 83.9089C56.8539 84.7241 55.8272 84.9561 55.3057 84.3362L55.3005 84.33L55.2952 84.324L49.3189 77.4482C49.3184 77.4476 49.318 77.447 49.3176 77.4466C53.0579 76.5331 56.4171 74.4387 58.89 71.4585L58.8914 71.4569C58.8979 71.449 58.9037 71.4445 58.9081 71.4418L63.3334 75.8671C63.9019 76.4356 63.9908 76.9683 63.9281 77.2982C63.8663 77.6233 63.6437 77.8782 63.2705 77.9668L57.7455 80.9774ZM49.3029 77.4498L49.303 77.4501C49.3016 77.4505 49.3009 77.4507 49.301 77.4507L49.3029 77.4498ZM49.3029 77.4498C49.3033 77.4496 49.3037 77.4494 49.3042 77.4491C49.3075 77.4473 49.3108 77.4448 49.3135 77.4421C49.3169 77.4388 49.3179 77.4367 49.3179 77.4367C49.3179 77.4366 49.3176 77.4372 49.3172 77.4383C49.3163 77.4414 49.3164 77.4438 49.3164 77.4448L49.3029 77.4498ZM49.3029 77.4498L49.0605 76.48M49.3029 77.4498L58.1205 70.82C55.7805 73.64 52.6005 75.62 49.0605 76.48M49.0605 76.48C48.3405 76.66 48.0805 77.54 48.5605 78.1L49.2965 77.4517L49.0605 76.48ZM58.8933 71.427L58.8934 71.4271C58.8933 71.427 58.8933 71.427 58.8933 71.427ZM49.3162 77.4444L49.3162 77.4445L49.3162 77.4444Z" fill="#00D563" stroke="#00D563" stroke-width="2"/>
<path d="M26.4003 78.94L29.7003 79.72C30.4403 79.9 31.0203 80.46 31.1803 81.2L31.8803 84.14C32.2603 85.74 34.3003 86.24 35.3603 84.98L41.3403 78.1C41.8203 77.54 41.5603 76.66 40.8403 76.48C37.3003 75.62 34.1203 73.64 31.7803 70.82C31.4003 70.36 30.7203 70.3 30.3003 70.72L25.8603 75.16C24.3403 76.68 24.8803 78.58 26.4003 78.94Z" fill="#00D563"/>
<path d="M45 46C37.26 46 31 52.26 31 60C31 62.9 31.86 65.56 33.34 67.78C35.5 70.98 38.92 73.24 42.9 73.82C43.58 73.94 44.28 74 45 74C45.72 74 46.42 73.94 47.1 73.82C51.08 73.24 54.5 70.98 56.66 67.78C58.14 65.56 59 62.9 59 60C59 52.26 52.74 46 45 46ZM51.12 59.56L49.46 61.22C49.18 61.5 49.02 62.04 49.12 62.44L49.6 64.5C49.98 66.12 49.12 66.76 47.68 65.9L45.68 64.72C45.32 64.5 44.72 64.5 44.36 64.72L42.36 65.9C40.92 66.74 40.06 66.12 40.44 64.5L40.92 62.44C41 62.06 40.86 61.5 40.58 61.22L38.88 59.56C37.9 58.58 38.22 57.6 39.58 57.38L41.72 57.02C42.08 56.96 42.5 56.64 42.66 56.32L43.84 53.96C44.48 52.68 45.52 52.68 46.16 53.96L47.34 56.32C47.5 56.64 47.92 56.96 48.3 57.02L50.44 57.38C51.78 57.6 52.1 58.58 51.12 59.56Z" fill="#00D563"/>
</svg>
