<svg width="90" height="90" viewBox="0 0 90 90" fill="none" xmlns="http://www.w3.org/2000/svg">
<path d="M4 45C1.79086 45 -0.0184479 46.7944 0.177658 48.9948C0.582306 53.535 1.67516 57.9953 3.42542 62.2208C5.68688 67.6804 9.00156 72.6412 13.1802 76.8198C17.3588 80.9984 22.3196 84.3131 27.7792 86.5746C32.0047 88.3248 36.465 89.4177 41.0052 89.8223C43.2056 90.0184 45 88.2091 45 86V49C45 46.7909 43.2091 45 41 45H4Z" fill="#D6FFE9"/>
<path d="M50.9597 76.6812L50.9546 76.6985L50.9502 76.7159C50.333 79.1682 48.3279 80.74 45.38 80.74H39.94H39.6376L39.3859 80.9075L33.3459 84.9275L33.3393 84.932L33.3327 84.9365C33.1217 85.0818 32.8 84.9457 32.8 84.64V81.74V80.74H31.8C29.986 80.74 28.5536 80.1393 27.5871 79.1729C26.5991 78.1849 26 76.7515 26 74.94V66.8C26 65.1106 26.5215 63.7528 27.3815 62.7879C28.2388 61.826 29.4922 61.1869 31.0851 61.0364C31.3458 61.0164 31.5666 61 31.8 61H45.38C47.1928 61 48.6257 61.5999 49.6029 62.5771C50.5801 63.5543 51.18 64.9872 51.18 66.8V74.94C51.18 75.5884 51.1077 76.1713 50.9597 76.6812Z" fill="#00D563" stroke="#00D563" stroke-width="2"/>
<path d="M56.5 73.2C59.04 73.2 61.18 72.36 62.66 70.86C64.16 69.38 65 67.24 65 64.7V54.5C65 49.8 61.2 46 56.5 46H39.5C34.8 46 31 49.8 31 54.5V56C31 56.56 31.44 57 32 57H45.38C50.8 57 55.18 61.38 55.18 66.8V72.2C55.18 72.76 55.62 73.2 56.18 73.2H56.5Z" fill="#00D563"/>
</svg>
