<svg width="90" height="90" viewBox="0 0 90 90" fill="none" xmlns="http://www.w3.org/2000/svg">
<path d="M4 45C1.79086 45 -0.0184479 46.7944 0.177658 48.9948C0.582306 53.535 1.67516 57.9953 3.42542 62.2208C5.68688 67.6804 9.00156 72.6412 13.1802 76.8198C17.3588 80.9984 22.3196 84.3131 27.7792 86.5746C32.0047 88.3248 36.465 89.4177 41.0052 89.8223C43.2056 90.0184 45 88.2091 45 86V49C45 46.7909 43.2091 45 41 45H4Z" fill="#D6FFE9"/>
<path d="M58.359 55.4744L58.362 55.4897L58.3655 55.5049C58.5246 56.1943 58.5999 56.9562 58.5999 57.84V68.14C58.5999 71.0294 57.7794 72.9287 56.4995 74.1172C55.2061 75.3182 53.2866 75.94 50.7999 75.94H33.2199C32.3774 75.94 31.593 75.865 30.8794 75.7044L30.8489 75.6975L30.8179 75.6926C30.3985 75.6255 29.9831 75.506 29.5858 75.3618C28.2738 74.8711 27.2567 74.0755 26.5559 72.9399C25.8476 71.7921 25.4199 70.227 25.4199 68.14V57.84C25.4199 54.9506 26.2404 53.0513 27.5204 51.8628C28.8137 50.6619 30.7332 50.04 33.2199 50.04H50.7799C52.8887 50.04 54.5942 50.4882 55.8489 51.3552C57.0819 52.2072 57.9732 53.5273 58.359 55.4744ZM30.5599 68.5C31.9322 68.5 33.0599 67.3723 33.0599 66V60C33.0599 58.6278 31.9322 57.5 30.5599 57.5C29.1876 57.5 28.0599 58.6278 28.0599 60V66C28.0599 67.3723 29.1876 68.5 30.5599 68.5ZM35.7199 63C35.7199 66.4723 38.5276 69.28 41.9999 69.28C45.4722 69.28 48.2799 66.4723 48.2799 63C48.2799 59.5278 45.4722 56.72 41.9999 56.72C38.5276 56.72 35.7199 59.5278 35.7199 63ZM53.4199 68.5C54.7922 68.5 55.9199 67.3723 55.9199 66V60C55.9199 58.6278 54.7922 57.5 53.4199 57.5C52.0476 57.5 50.9199 58.6278 50.9199 60V66C50.9199 67.3723 52.0476 68.5 53.4199 68.5Z" fill="#00D563" stroke="#00D563" stroke-width="2"/>
<path d="M65.5995 63.8401V74.1401C65.5995 80.3001 62.0795 82.9601 56.7795 82.9601H39.2195C37.7195 82.9601 36.3795 82.7401 35.2195 82.3001C34.2795 81.9601 33.4595 81.4601 32.7995 80.8201C32.4395 80.4801 32.7195 79.9401 33.2195 79.9401H50.7795C58.1795 79.9401 62.5795 75.5401 62.5795 68.1601V57.8401C62.5795 57.3601 63.1195 57.0601 63.4595 57.4201C64.8195 58.8601 65.5995 60.9601 65.5995 63.8401Z" fill="#00D563"/>
</svg>
